<svg width="150" height="150" viewBox="0 0 150 150" fill="none" xmlns="http://www.w3.org/2000/svg">
<path d="M52.5213 1.75769C46.8407 1.75769 42.2676 6.33086 42.2676 12.0114C42.2676 22.3192 35.3635 28.481 20.0023 28.481C14.3217 28.481 9.7485 33.0541 9.7485 38.7347V61.6689C9.7485 117.186 63.7976 148.24 74.9989 148.24C87.1743 148.24 140.249 117.186 140.249 61.6689V38.7347C140.249 33.0541 135.676 28.481 129.996 28.481C114.634 28.481 107.73 22.3192 107.73 12.0114C107.73 6.33086 103.157 1.75769 97.4765 1.75769H52.5213Z" fill="#BEABFA"/>
<path opacity="0.5" d="M63.5861 24.576C59.2207 24.576 55.7064 28.0904 55.7064 32.4557C55.7064 40.3769 50.4008 45.1121 38.5962 45.1121C34.2308 45.1121 30.7165 48.6264 30.7165 52.9917V70.616C30.7165 113.279 72.2515 137.143 80.8594 137.143C90.2158 137.143 131.002 113.279 131.002 70.616V52.9917C131.002 48.6264 127.488 45.1121 123.123 45.1121C111.318 45.1121 106.012 40.3769 106.012 32.4557C106.012 28.0904 102.498 24.576 98.1327 24.576H63.5861Z" fill="#9070F6"/>
<path d="M57.7263 18.7167C53.361 18.7167 49.8467 22.231 49.8467 26.5964C49.8467 34.5175 44.5411 39.2527 32.7365 39.2527C28.3711 39.2527 24.8568 42.767 24.8568 47.1324V64.7566C24.8568 107.419 66.3918 131.284 74.9997 131.284C84.3561 131.284 125.143 107.419 125.143 64.7566V47.1324C125.143 42.767 121.628 39.2527 117.263 39.2527C105.458 39.2527 100.153 34.5175 100.153 26.5964C100.153 22.231 96.6383 18.7167 92.273 18.7167H57.7263Z" fill="#A389F7"/>
<path d="M82.6168 55.6892C76.0047 55.6892 69.6634 58.3159 64.9879 62.9914C60.3124 67.6668 57.6857 74.0081 57.6857 80.6203C57.6857 87.2324 60.3124 93.5737 64.9879 98.2492C69.6634 102.925 76.0047 105.551 82.6168 105.551C89.229 105.551 95.5703 102.925 100.246 98.2492C104.921 93.5737 107.548 87.2324 107.548 80.6203C107.548 74.0081 104.921 67.6668 100.246 62.9914C95.5703 58.3159 89.229 55.6892 82.6168 55.6892Z" fill="#744FF3"/>
<path d="M75 44.7085C67.4958 44.7085 60.299 47.6895 54.9927 52.9958C49.6864 58.3021 46.7054 65.499 46.7054 73.0032C46.7054 80.5074 49.6864 87.7043 54.9927 93.0106C60.299 98.3168 67.4958 101.298 75 101.298C82.5043 101.298 89.7011 98.3168 95.0074 93.0106C100.314 87.7043 103.295 80.5074 103.295 73.0032C103.295 65.499 100.314 58.3021 95.0074 52.9958C89.7011 47.6895 82.5043 44.7085 75 44.7085Z" fill="#8D6CFA"/>
<path d="M83.2061 66.7421L76.4024 73.5458L74.7047 71.8482C71.8443 68.9871 67.2059 68.9871 64.3455 71.8482C61.4845 74.7086 61.4845 79.3469 64.3455 82.2073L71.2228 89.0845C74.0834 91.9452 78.7213 91.9452 81.5819 89.0845L93.5652 77.1013C96.4263 74.2409 96.4263 69.6025 93.5652 66.7421C89.9381 63.115 85.9907 63.9574 83.2061 66.7421Z" fill="#744FF3"/>
<path d="M79.2505 62.4209L72.4468 69.2246L70.7491 67.5269C67.8887 64.6658 63.2504 64.6658 60.39 67.5269C57.529 70.3873 57.529 75.0256 60.39 77.886L67.2672 84.7633C70.1278 87.6239 74.7658 87.6239 77.6264 84.7633L89.6097 72.78C92.4707 69.9196 92.4707 65.2813 89.6097 62.4209C85.9826 58.7937 82.0351 59.6361 79.2505 62.4209ZM74.7717 34.1787L74.7673 35.3509L77.09 35.4028L77.1355 34.2328L74.7717 34.1787ZM71.0735 34.3712L68.7292 34.6804L68.9044 35.8396L71.2076 35.5347L71.0735 34.3712ZM80.7017 34.5918L80.5157 35.7488L82.8016 36.1575L83.0287 35.007L80.7017 34.5918ZM65.2257 35.4179L62.9571 36.0797L63.3031 37.1978L65.5328 36.549L65.2257 35.4179ZM86.4976 35.9045L86.1343 37.0204L88.3294 37.7752L88.7316 36.6744L86.4976 35.9045ZM59.6028 37.347L57.4639 38.3548L57.983 39.4037L60.0829 38.4154L59.6028 37.347ZM92.0189 38.0953L91.4933 39.142L93.5479 40.2233L94.1101 39.1982L92.0189 38.0953ZM54.3497 40.1195L52.386 41.4344L53.0564 42.3968L54.9834 41.1035L54.3497 40.1195ZM97.1422 41.1057L96.4631 42.0594L98.3295 43.4414L99.041 42.5114L97.1422 41.1057ZM49.5767 43.6576L47.8379 45.258L48.6446 46.1058L50.3553 44.5335L49.5767 43.6576ZM101.749 44.8601L100.931 45.697L102.564 47.3493L103.412 46.5405L101.749 44.8601ZM45.3941 47.8813L43.9214 49.7282L44.8513 50.4419L46.2981 48.6253L45.3941 47.8813ZM105.732 49.2697L104.796 49.9726L106.156 51.8541L107.119 51.1837L105.732 49.2697ZM41.9058 52.6889L40.7293 54.7391L41.7565 55.3036L42.9114 53.2901L41.9058 52.6889ZM108.994 54.233L107.962 54.7888L109.026 56.8542L110.077 56.3351L108.994 54.233ZM39.1916 57.9744L38.3395 60.1782L39.4403 60.5826L40.2773 58.4156L39.1916 57.9744ZM111.465 59.6397L110.36 60.0268L111.091 62.2327L112.209 61.8824L111.465 59.6397ZM37.3144 63.6146L36.8192 65.9265L37.9697 66.1493L38.4563 63.8807L37.3144 63.6146ZM113.07 65.3577L111.92 65.5762L112.309 67.8664L113.466 67.6869L113.07 65.3577ZM36.3304 69.4754L36.1942 71.8349L37.3642 71.8803L37.5004 69.5619L36.3304 69.4754ZM113.784 71.2575L112.614 71.2965L112.651 73.6191H113.823L113.784 71.2575ZM37.4139 75.3254L36.2461 75.4162L36.4667 77.7692L37.6302 77.6373L37.4139 75.3254ZM112.437 77.0577L112.121 79.3588L113.28 79.5361L113.6 77.194L112.437 77.0577ZM38.2055 81.0349L37.0636 81.3009L37.6388 83.5933L38.7699 83.2883L38.2055 81.0349ZM111.39 82.7196L110.719 84.9449L111.833 85.3039L112.517 83.0418L111.39 82.7196ZM39.8599 86.5561L38.7721 86.9908L39.6912 89.1686L40.7617 88.695L39.8599 86.5561ZM109.476 88.1586L108.479 90.2564L109.528 90.7776L110.544 88.6431L109.476 88.1586ZM42.3426 91.7551L41.3348 92.352L42.574 94.3633L43.5624 93.7318L42.3426 91.7551ZM106.76 93.2387L105.449 95.1548L106.405 95.8339L107.737 93.8832L106.76 93.2387ZM45.5866 96.5152L44.6848 97.2613L46.2203 99.0584L47.0961 98.282L45.5866 96.5152ZM103.297 97.8452L101.71 99.5407L102.549 100.356L104.164 98.6324L103.297 97.8452ZM49.5226 100.728L48.7419 101.602L50.5304 103.146L51.2809 102.244L49.5226 100.728ZM99.1708 101.872L97.3476 103.308L98.057 104.242L99.9126 102.778L99.1708 101.872ZM54.0534 104.292L53.4111 105.274L55.4116 106.53L56.0193 105.529L54.0534 104.292ZM94.4843 105.226L92.4644 106.37L93.0245 107.4L95.0812 106.234L94.4843 105.226ZM59.0686 107.127L58.5863 108.196L60.7576 109.13L61.201 108.046L59.0686 107.127ZM89.348 107.828L87.1723 108.643L87.5616 109.746L89.7762 108.918L89.348 107.828ZM64.4601 109.16L64.1465 110.289L66.4368 110.877L66.7093 109.74L64.4601 109.16ZM83.8613 109.604L81.5905 110.082L81.8111 111.232L84.1252 110.745L83.8613 109.604ZM70.0982 110.341L69.9662 111.505L72.3192 111.732L72.41 110.564L70.0982 110.341ZM78.1735 110.521L75.853 110.648L75.9006 111.818L78.2579 111.688L78.1735 110.521Z" fill="#E7EDFB"/>
</svg>
