<svg width="66" height="131" viewBox="0 0 66 131" fill="none" xmlns="http://www.w3.org/2000/svg">
<path d="M65.834 130.833C57.298 130.833 48.8457 129.151 40.9595 125.885C33.0734 122.618 25.9078 117.831 19.872 111.795C13.8362 105.759 9.04836 98.5933 5.7818 90.7072C2.51524 82.821 0.833969 74.3687 0.833969 65.8328C0.833969 57.2968 2.51524 48.8445 5.7818 40.9583C9.04836 33.0722 13.8362 25.9066 19.872 19.8708C25.9078 13.835 33.0734 9.04715 40.9595 5.78059C48.8457 2.51404 57.298 0.832763 65.834 0.832764V20.3328C59.8588 20.3328 53.9422 21.5097 48.4219 23.7962C42.9016 26.0828 37.8857 29.4343 33.6606 33.6594C29.4355 37.8845 26.084 42.9004 23.7975 48.4207C21.5109 53.941 20.334 59.8576 20.334 65.8328C20.334 71.8079 21.5109 77.7245 23.7974 83.2449C26.084 88.7652 29.4355 93.7811 33.6606 98.0061C37.8857 102.231 42.9016 105.583 48.4219 107.869C53.9422 110.156 59.8588 111.333 65.834 111.333L65.834 130.833Z" fill="#8D6CFA"/>
</svg>
