<svg width="131" height="131" viewBox="0 0 131 131" fill="none" xmlns="http://www.w3.org/2000/svg">
<path d="M65.834 130.833C57.298 130.833 48.8457 129.151 40.9595 125.885C33.0734 122.618 25.9078 117.831 19.872 111.795C13.8362 105.759 9.04836 98.5933 5.7818 90.7072C2.51524 82.821 0.833969 74.3687 0.833969 65.8328C0.833969 57.2968 2.51524 48.8445 5.7818 40.9583C9.04836 33.0722 13.8362 25.9066 19.872 19.8708C25.9078 13.835 33.0734 9.04715 40.9595 5.78059C48.8457 2.51404 57.298 0.832763 65.834 0.832764V20.3328C59.8588 20.3328 53.9422 21.5097 48.4219 23.7962C42.9016 26.0828 37.8857 29.4343 33.6606 33.6594C29.4355 37.8845 26.084 42.9004 23.7975 48.4207C21.5109 53.941 20.334 59.8576 20.334 65.8328C20.334 71.8079 21.5109 77.7245 23.7974 83.2449C26.084 88.7652 29.4355 93.7811 33.6606 98.0061C37.8857 102.231 42.9016 105.583 48.4219 107.869C53.9422 110.156 59.8588 111.333 65.834 111.333L65.834 130.833Z" fill="#8D6CFA"/>
<path d="M65.834 130.833C56.0611 130.833 46.414 128.629 37.6105 124.386C28.807 120.142 21.0736 113.968 14.9858 106.323L30.2403 94.176C34.5017 99.5276 39.9151 103.849 46.0775 106.82C52.24 109.79 58.993 111.333 65.834 111.333L65.834 130.833Z" fill="#4ECC4E"/>
<path d="M57.2318 1.40448C65.6927 0.274835 74.2932 0.822735 82.5423 3.0169C90.7914 5.21107 98.5275 9.00853 105.309 14.1925C112.091 19.3764 117.785 25.8453 122.066 33.2298C126.348 40.6143 129.133 48.7698 130.262 57.2307C131.392 65.6915 130.844 74.292 128.65 82.5411C126.456 90.7902 122.658 98.5264 117.474 105.308C112.29 112.089 105.821 117.783 98.4369 122.065C91.0524 126.346 82.8969 129.131 74.436 130.261L71.8554 110.933C77.778 110.142 83.4868 108.192 88.656 105.195C93.8252 102.198 98.3534 98.2124 101.982 93.4653C105.611 88.7183 108.269 83.303 109.805 77.5286C111.341 71.7542 111.725 65.7339 110.934 59.8113C110.143 53.8887 108.193 48.1799 105.196 43.0107C102.199 37.8415 98.2136 33.3133 93.4665 29.6846C88.7195 26.0558 83.3042 23.3976 77.5298 21.8617C71.7554 20.3257 65.7351 19.9422 59.8125 20.733L57.2318 1.40448Z" fill="#EFEBFE"/>
<path d="M3.6594 46.8769C-0.32185 59.9353 -0.0905104 73.9158 4.32061 86.8353C8.73173 99.7548 17.0987 110.958 28.2347 118.854C39.3707 126.751 52.7105 130.941 66.3618 130.831C80.0132 130.72 93.2831 126.313 104.289 118.237C115.296 110.16 123.48 98.8229 127.68 85.8334C131.881 72.844 131.885 58.8616 127.692 45.8696C123.5 32.8776 115.323 21.5355 104.321 13.4521C93.3198 5.36873 80.0526 0.954391 66.4013 0.835239L66.2311 20.3345C75.787 20.4179 85.0741 23.5079 92.775 29.1663C100.476 34.8247 106.2 42.7641 109.135 51.8586C112.07 60.953 112.067 70.7406 109.126 79.8332C106.186 88.9259 100.457 96.8618 92.7528 102.516C85.0484 108.169 75.7594 111.254 66.2035 111.331C56.6475 111.409 47.3097 108.476 39.5145 102.948C31.7193 97.4201 25.8624 89.5782 22.7746 80.5345C19.6868 71.4909 19.5249 61.7046 22.3118 52.5637L3.6594 46.8769Z" fill="#F5A623"/>
<path d="M14.8652 106.171C21.6797 114.782 30.5645 121.525 40.6905 125.773C50.8164 130.02 61.8534 131.633 72.7714 130.461C83.6894 129.29 94.1326 125.371 103.126 119.071C112.12 112.771 119.371 104.295 124.203 94.4345C129.035 84.574 131.29 73.6501 130.758 62.6823C130.225 51.7144 126.923 41.0602 121.159 31.7138C115.395 22.3675 107.358 14.6336 97.7963 9.2341C88.2348 3.83456 77.4613 0.945311 66.4811 0.835985L66.287 20.335C73.9731 20.4115 81.5146 22.434 88.2076 26.2137C94.9006 29.9934 100.527 35.4071 104.562 41.9495C108.596 48.492 110.908 55.9499 111.28 63.6274C111.653 71.3049 110.075 78.9516 106.692 85.854C103.31 92.7564 98.2342 98.6894 91.9386 103.099C85.643 107.509 78.3328 110.252 70.6902 111.073C63.0476 111.893 55.3217 110.764 48.2335 107.791C41.1454 104.817 34.926 100.097 30.1558 94.0696L14.8652 106.171Z" fill="#4ECC4E"/>
</svg>
